<svg viewBox="0 0 54 23" fill="none" xmlns="http://www.w3.org/2000/svg">
  <path
    d="M18.1433 10.9257V19.7303C17.7975 20.1474 17.2634 20.6001 16.5411 21.0884C15.8188 21.5665 14.888 21.9785 13.7487 22.3244C12.6093 22.6703 11.2309 22.8432 9.61338 22.8432C8.179 22.8432 6.87179 22.6092 5.69173 22.1413C4.51168 21.6632 3.49439 20.9663 2.63986 20.0508C1.79551 19.1352 1.14445 18.0162 0.68667 16.6937C0.22889 15.3611 0 13.8402 0 12.1312V10.7426C0 9.03353 0.218717 7.51268 0.656151 6.18003C1.10376 4.84738 1.73956 3.72328 2.56357 2.80772C3.38757 1.89216 4.36926 1.19531 5.50862 0.717189C6.64798 0.239063 7.91451 0 9.30819 0C11.241 0 12.828 0.31536 14.0691 0.946079C15.3102 1.56662 16.2563 2.43132 16.9073 3.54017C17.5686 4.63884 17.9755 5.90028 18.1281 7.32448H13.6876C13.5757 6.57169 13.3621 5.91553 13.0467 5.35603C12.7314 4.79652 12.2787 4.35908 11.6887 4.04372C11.1088 3.72836 10.356 3.57068 9.43027 3.57068C8.6673 3.57068 7.98572 3.72836 7.38552 4.04372C6.79549 4.34891 6.29702 4.8016 5.8901 5.4018C5.48319 6.002 5.17291 6.74463 4.95928 7.62967C4.74565 8.51471 4.63884 9.54217 4.63884 10.7121V12.1312C4.63884 13.2909 4.75074 14.3183 4.97454 15.2136C5.19835 16.0986 5.52897 16.8463 5.9664 17.4567C6.41401 18.0569 6.96334 18.5096 7.61441 18.8148C8.26547 19.1199 9.02335 19.2725 9.88805 19.2725C10.6103 19.2725 11.2105 19.2115 11.6887 19.0894C12.1769 18.9674 12.5686 18.8198 12.8636 18.6469C13.1688 18.4638 13.4028 18.2909 13.5655 18.1281V14.1912H9.38449V10.9257H18.1433Z"
    fill="#0054B5"
  />
  <path
    d="M36.0236 18.9674V22.538H24.8385V18.9674H36.0236ZM26.3186 0.320446V22.538H21.7408V0.320446H26.3186Z"
    fill="#0054B5"
  />
  <path
    d="M53.4613 18.9674V22.538H41.6353V18.9674H53.4613ZM43.1307 0.320446V22.538H38.5529V0.320446H43.1307ZM51.9201 9.36923V12.8484H41.6353V9.36923H51.9201ZM53.446 0.320446V3.90639H41.6353V0.320446H53.446Z"
    fill="#0054B5"
  />
</svg>
